<svg width="150" height="136" viewBox="0 0 150 136" fill="none" xmlns="http://www.w3.org/2000/svg">
<path d="M2.19446 18.3821H147.806V107.871H2.19446V18.3821Z" fill="#F9F6F9"/>
<path d="M141.375 18.3821H147.805V107.871H141.375V18.3821Z" fill="#DDDAEC"/>
<path d="M147.806 18.3821H2.19446V7.66554C2.19446 4.77792 4.53552 2.43686 7.42314 2.43686H142.577C145.464 2.43686 147.806 4.77792 147.806 7.66554V18.3821H147.806Z" fill="#FFE07D"/>
<path d="M142.577 2.43686H136.146C139.033 2.43686 141.375 4.77792 141.375 7.66554V18.3821H147.806V7.66554C147.806 4.77792 145.465 2.43686 142.577 2.43686Z" fill="#FFD064"/>
<path d="M141.521 133.563H8.4797C5.00864 133.563 2.19446 130.749 2.19446 127.278V107.871H147.806V127.278C147.806 130.749 144.992 133.563 141.521 133.563Z" fill="#95D6A4"/>
<path d="M141.609 107.871V127.27C141.609 130.746 138.799 133.563 135.333 133.563H141.529C144.996 133.563 147.806 130.746 147.806 127.27V107.871H141.609Z" fill="#78C2A4"/>
<path d="M75.0002 76.9641C88.1452 76.9641 98.8013 66.308 98.8013 53.1629C98.8013 40.0179 88.1452 29.3618 75.0002 29.3618C61.8551 29.3618 51.199 40.0179 51.199 53.1629C51.199 66.308 61.8551 76.9641 75.0002 76.9641Z" fill="#FFE07D"/>
<path d="M75.0002 29.3618C73.7002 29.3618 72.4256 29.47 71.1824 29.6704C82.5117 31.4977 91.1655 41.3181 91.1655 53.1629C91.1655 65.0078 82.5117 74.8279 71.1824 76.6552C72.4259 76.8559 73.7002 76.9639 75.0002 76.9639C88.1453 76.9639 98.8013 66.3078 98.8013 53.1627C98.8013 40.0178 88.1453 29.3618 75.0002 29.3618Z" fill="#FFD064"/>
<path d="M75.0002 68.3434C81.1429 68.3434 86.1226 63.3637 86.1226 57.2206H63.8774C63.8774 63.3637 68.8574 68.3434 75.0002 68.3434Z" fill="#DD636E"/>
<path d="M51.1779 89.5044H98.8224C100.035 89.5044 101.017 88.5222 101.017 87.31C101.017 86.0978 100.035 85.1155 98.8224 85.1155H51.1779C49.9656 85.1155 48.9834 86.0978 48.9834 87.31C48.9834 88.5222 49.9659 89.5044 51.1779 89.5044Z" fill="black"/>
<path d="M114.451 94.9532H35.5492C34.337 94.9532 33.3547 95.9354 33.3547 97.1477C33.3547 98.3599 34.337 99.3421 35.5492 99.3421H114.451C115.663 99.3421 116.646 98.3599 116.646 97.1477C116.646 95.9354 115.663 94.9532 114.451 94.9532Z" fill="black"/>
<path d="M13.7496 8.21494C12.5374 8.21494 11.5552 9.19718 11.5552 10.4094C11.5552 11.6216 12.5374 12.6039 13.7496 12.6039H16.8596C18.0719 12.6039 19.0541 11.6216 19.0541 10.4094C19.0541 9.19718 18.0719 8.21494 16.8596 8.21494H13.7496Z" fill="black"/>
<path d="M26.0559 8.21494C24.8437 8.21494 23.8615 9.19718 23.8615 10.4094C23.8615 11.6216 24.8437 12.6039 26.0559 12.6039H29.1659C30.3781 12.6039 31.3604 11.6216 31.3604 10.4094C31.3604 9.19718 30.3781 8.21494 29.1659 8.21494H26.0559Z" fill="black"/>
<path d="M38.3619 8.21494C37.1497 8.21494 36.1675 9.19718 36.1675 10.4094C36.1675 11.6216 37.1497 12.6039 38.3619 12.6039H41.4719C42.6842 12.6039 43.6664 11.6216 43.6664 10.4094C43.6664 9.19718 42.6842 8.21494 41.4719 8.21494H38.3619Z" fill="black"/>
<path d="M142.577 0.24234H111.386C110.174 0.24234 109.192 1.22458 109.192 2.43681C109.192 3.64903 110.174 4.63127 111.386 4.63127H142.577C144.25 4.63127 145.611 5.99243 145.611 7.66549V16.1876H4.38893V7.66578C4.38893 5.99272 5.75009 4.63157 7.42315 4.63157H102.601C103.813 4.63157 104.795 3.64932 104.795 2.4371C104.795 1.22488 103.813 0.242633 102.601 0.242633H7.42315C3.33003 0.24234 0 3.57237 0 7.66578V127.27C0 131.95 3.80023 135.758 8.47152 135.758H87.1692C88.3814 135.758 89.3637 134.776 89.3637 133.564C89.3637 132.351 88.3814 131.369 87.1692 131.369H8.47152C6.22058 131.369 4.38893 129.53 4.38893 127.27V110.066H145.611V127.27C145.611 129.53 143.78 131.369 141.529 131.369H95.9316C94.7193 131.369 93.7371 132.351 93.7371 133.564C93.7371 134.776 94.7193 135.758 95.9316 135.758H141.529C146.2 135.758 150 131.95 150 127.27V7.66578C150 3.57237 146.67 0.24234 142.577 0.24234ZM4.38893 105.677V20.5769H145.611V105.677H4.38893V105.677Z" fill="black"/>
<path d="M80.3939 114.709L73.0055 122.097L69.7697 118.973C68.8981 118.131 67.5085 118.156 66.667 119.028C65.8255 119.9 65.8495 121.289 66.7217 122.131L71.5086 126.752C71.934 127.163 72.4835 127.368 73.0327 127.368C73.5948 127.368 74.1563 127.153 74.5847 126.725L83.4977 117.812C84.3547 116.955 84.3547 115.565 83.4977 114.708C82.6401 113.852 81.2509 113.852 80.3939 114.709Z" fill="black"/>
<path d="M69.4605 46.7618V43.8915C69.4605 42.6792 68.4782 41.697 67.266 41.697C66.0538 41.697 65.0715 42.6792 65.0715 43.8915V46.7618C65.0715 47.974 66.0538 48.9563 67.266 48.9563C68.4782 48.9563 69.4605 47.9737 69.4605 46.7618Z" fill="black"/>
<path d="M84.9288 46.7618V43.8915C84.9288 42.6792 83.9466 41.697 82.7344 41.697C81.5222 41.697 80.5399 42.6792 80.5399 43.8915V46.7618C80.5399 47.974 81.5222 48.9563 82.7344 48.9563C83.9466 48.9563 84.9288 47.9737 84.9288 46.7618Z" fill="black"/>
<path d="M61.683 57.2207C61.683 64.5639 67.6569 70.5382 75.0002 70.5382C82.3435 70.5382 88.3174 64.5639 88.3174 57.2207C88.3174 56.0084 87.3351 55.0262 86.1229 55.0262H63.8777C62.6655 55.0262 61.683 56.0084 61.683 57.2207ZM83.6555 59.4151C82.6753 63.2809 79.1662 66.1489 75.0002 66.1489C70.8342 66.1489 67.3254 63.2806 66.3449 59.4148H83.6555V59.4151Z" fill="black"/>
<path d="M56.1584 67.8606C57.1778 67.2052 57.4731 65.8473 56.8176 64.8282C54.5778 61.3442 53.3937 57.3105 53.3937 53.163C53.3937 41.249 63.0865 31.5562 75.0004 31.5562C86.9143 31.5562 96.6071 41.249 96.6071 53.163C96.6071 65.0769 86.9143 74.7697 75.0004 74.7697C70.4011 74.7697 66.0081 73.3398 62.295 70.635C61.3163 69.9211 59.9429 70.1364 59.2292 71.1166C58.5156 72.0962 58.7309 73.4688 59.7108 74.1824C64.1791 77.4381 69.4663 79.1589 75.0004 79.1589C89.3344 79.1589 100.996 67.4975 100.996 53.1632C100.996 38.829 89.3347 27.1676 75.0004 27.1676C60.6662 27.1676 49.0048 38.829 49.0048 53.1632C49.0048 58.1543 50.4297 63.0085 53.126 67.2017C53.7814 68.2208 55.1387 68.5157 56.1584 67.8606Z" fill="black"/>
</svg>
